<svg width="20" height="20" viewBox="0 0 20 20" fill="none" xmlns="http://www.w3.org/2000/svg">
<path d="M3.30938 0.934675L10 7.62534L16.656 0.969341C16.8031 0.812852 16.9802 0.687666 17.1768 0.601289C17.3733 0.514913 17.5853 0.469126 17.8 0.466675C18.2598 0.466675 18.7006 0.649293 19.0257 0.974356C19.3508 1.29942 19.5334 1.7403 19.5334 2.20001C19.5374 2.41252 19.498 2.62361 19.4175 2.82034C19.337 3.01706 19.2172 3.19526 19.0654 3.34401L12.3227 10L19.0654 16.7427C19.3511 17.0222 19.5186 17.4006 19.5334 17.8C19.5334 18.2597 19.3508 18.7006 19.0257 19.0257C18.7006 19.3507 18.2598 19.5333 17.8 19.5333C17.5791 19.5425 17.3587 19.5056 17.1529 19.4251C16.947 19.3445 16.7601 19.222 16.604 19.0653L10 12.3747L3.32671 19.048C3.18026 19.1993 3.00529 19.3201 2.81192 19.4034C2.61854 19.4867 2.41058 19.5308 2.20005 19.5333C1.74034 19.5333 1.29946 19.3507 0.974394 19.0257C0.649331 18.7006 0.466713 18.2597 0.466713 17.8C0.462671 17.5875 0.502099 17.3764 0.582577 17.1797C0.663055 16.983 0.782885 16.8048 0.934713 16.656L7.67738 10L0.934713 3.25734C0.649033 2.97786 0.481515 2.59939 0.466713 2.20001C0.466713 1.7403 0.649331 1.29942 0.974394 0.974356C1.29946 0.649293 1.74034 0.466675 2.20005 0.466675C2.61605 0.471875 3.01471 0.640008 3.30938 0.934675Z" fill="#FFC099"/>
</svg>
