<svg width="25" height="25" viewBox="0 0 25 25" fill="none" xmlns="http://www.w3.org/2000/svg">
<path d="M23.9299 0.954823C23.7004 0.805888 23.4438 0.703624 23.1748 0.653871C22.9058 0.604119 22.6296 0.607853 22.3621 0.664861C22.0945 0.72187 21.8408 0.831035 21.6154 0.98612C21.3901 1.14121 21.1975 1.33917 21.0486 1.56871L9.375 19.5625L3.68195 14.2986C3.48109 14.1129 3.24562 13.9685 2.98898 13.8738C2.73234 13.7791 2.45955 13.7358 2.1862 13.7465C1.63414 13.7682 1.11328 14.0082 0.738199 14.4139C0.36312 14.8195 0.164549 15.3575 0.186167 15.9096C0.207786 16.4617 0.447825 16.9825 0.853477 17.3576L8.32848 24.2687C8.32848 24.2687 8.54306 24.4534 8.64237 24.518C8.87187 24.6671 9.12849 24.7694 9.39757 24.8192C9.66665 24.869 9.94291 24.8653 10.2106 24.8083C10.4782 24.7513 10.732 24.6421 10.9574 24.487C11.1828 24.3318 11.3755 24.1338 11.5243 23.9041L24.5438 3.83607C24.6927 3.6066 24.795 3.35003 24.8447 3.08102C24.8945 2.81201 24.8907 2.53583 24.8337 2.26827C24.7767 2.0007 24.6675 1.74699 24.5125 1.52163C24.3574 1.29626 24.1594 1.10366 23.9299 0.954823Z" fill="#FFC099"/>
</svg>
