<svg width="13" height="13" viewBox="0 0 13 13" fill="none" xmlns="http://www.w3.org/2000/svg">
<path d="M12.4433 0.496529C12.3239 0.419083 12.1905 0.365905 12.0506 0.340034C11.9107 0.314162 11.7671 0.316104 11.628 0.345749C11.4889 0.375393 11.3569 0.432159 11.2397 0.512803C11.1226 0.593447 11.0224 0.69639 10.945 0.815751L4.87473 10.1725L1.91434 7.43528C1.80989 7.3387 1.68745 7.26365 1.55399 7.21439C1.42054 7.16514 1.27869 7.14266 1.13655 7.14822C0.849479 7.15946 0.578631 7.28428 0.38359 7.49522C0.188549 7.70616 0.0852919 7.98594 0.0965336 8.27301C0.107775 8.56008 0.232595 8.83093 0.443535 9.02597L4.33053 12.6198C4.33053 12.6198 4.44212 12.7158 4.49376 12.7494C4.6131 12.8269 4.74654 12.8801 4.88646 12.906C5.02639 12.9319 5.17004 12.93 5.30922 12.9003C5.44839 12.8707 5.58036 12.8139 5.69758 12.7332C5.8148 12.6526 5.91497 12.5496 5.99237 12.4302L12.7625 1.99478C12.8399 1.87545 12.8931 1.74203 12.919 1.60215C12.9448 1.46227 12.9429 1.31865 12.9133 1.17952C12.8836 1.04039 12.8268 0.908457 12.7462 0.791267C12.6656 0.674077 12.5626 0.573924 12.4433 0.496529Z" fill="#FFC099"/>
</svg>
