<svg width="11" height="11" viewBox="0 0 11 11" fill="none" xmlns="http://www.w3.org/2000/svg">
<path d="M2.15487 0.967334L5.50021 4.31267L8.82821 0.984667C8.90172 0.906422 8.99027 0.843829 9.08856 0.800641C9.18685 0.757453 9.29285 0.734559 9.40021 0.733334C9.63006 0.733334 9.8505 0.824643 10.013 0.987174C10.1756 1.14971 10.2669 1.37015 10.2669 1.6C10.2689 1.70626 10.2492 1.8118 10.2089 1.91016C10.1687 2.00853 10.1088 2.09763 10.0329 2.172L6.66154 5.5L10.0329 8.87133C10.1757 9.01108 10.2595 9.20031 10.2669 9.4C10.2669 9.62986 10.1756 9.8503 10.013 10.0128C9.8505 10.1754 9.63006 10.2667 9.40021 10.2667C9.28975 10.2712 9.17955 10.2528 9.07661 10.2125C8.97366 10.1722 8.88022 10.111 8.80221 10.0327L5.50021 6.68733L2.16354 10.024C2.09031 10.0996 2.00283 10.16 1.90614 10.2017C1.80945 10.2433 1.70548 10.2654 1.60021 10.2667C1.37035 10.2667 1.14991 10.1754 0.98738 10.0128C0.824849 9.8503 0.733539 9.62986 0.733539 9.4C0.731519 9.29375 0.751233 9.1882 0.791472 9.08984C0.831711 8.99148 0.891626 8.90237 0.967539 8.828L4.33887 5.5L0.967539 2.12867C0.8247 1.98892 0.74094 1.79969 0.733539 1.6C0.733539 1.37015 0.824849 1.14971 0.98738 0.987174C1.14991 0.824643 1.37035 0.733334 1.60021 0.733334C1.80821 0.735934 2.00754 0.82 2.15487 0.967334Z" fill="#FFC099"/>
</svg>
