<svg width="19" height="19" viewBox="0 0 19 19" fill="none" xmlns="http://www.w3.org/2000/svg">
<path d="M11.2219 1.55301C11.2468 1.45767 11.2905 1.36827 11.3505 1.29004C11.4104 1.21182 11.4854 1.14634 11.5709 1.09744C11.6565 1.04855 11.751 1.01722 11.8488 1.0053C11.9466 0.993379 12.0458 1.0011 12.1406 1.02801C13.5387 1.40298 14.8136 2.13921 15.8371 3.16276C16.8607 4.18631 17.5969 5.46115 17.9719 6.85926C17.9988 6.95406 18.0065 7.05328 17.9946 7.15111C17.9827 7.24893 17.9513 7.34339 17.9024 7.42896C17.8535 7.51452 17.7881 7.58947 17.7098 7.64941C17.6316 7.70934 17.5422 7.75306 17.4469 7.77801C17.3829 7.79654 17.3166 7.80601 17.25 7.80614C17.0845 7.80518 16.9239 7.74949 16.7933 7.64775C16.6627 7.546 16.5695 7.40391 16.5281 7.24364C16.2162 6.10203 15.6121 5.06147 14.7752 4.22464C13.9384 3.38782 12.8979 2.78365 11.7562 2.47176C11.6601 2.44784 11.5697 2.40486 11.4904 2.34537C11.4111 2.28587 11.3446 2.21107 11.2948 2.12539C11.2449 2.03972 11.2128 1.94491 11.2003 1.84659C11.1878 1.74827 11.1951 1.64844 11.2219 1.55301ZM10.9781 5.36864C11.6127 5.54234 12.1911 5.87835 12.6563 6.34358C13.1215 6.8088 13.4575 7.38718 13.6312 8.02176C13.6712 8.18284 13.764 8.32585 13.8949 8.42785C14.0258 8.52985 14.1872 8.58493 14.3531 8.58426C14.4167 8.58488 14.48 8.57539 14.5406 8.55614C14.6368 8.53222 14.7272 8.48924 14.8065 8.42974C14.8857 8.37024 14.9523 8.29544 15.0021 8.20977C15.0519 8.12409 15.0841 8.02929 15.0966 7.93097C15.1091 7.83265 15.1018 7.73282 15.075 7.63739C14.8382 6.7463 14.3702 5.93362 13.7182 5.28167C13.0663 4.62971 12.2536 4.16165 11.3625 3.92489C11.2647 3.88924 11.1605 3.87436 11.0566 3.88119C10.9527 3.88802 10.8514 3.91641 10.759 3.96455C10.6667 4.01268 10.5854 4.07952 10.5203 4.16079C10.4553 4.24207 10.4078 4.33601 10.381 4.43662C10.3542 4.53724 10.3487 4.64233 10.3647 4.74521C10.3808 4.84809 10.4181 4.94649 10.4743 5.03417C10.5304 5.12184 10.6042 5.19685 10.691 5.25444C10.7777 5.31202 10.8755 5.35091 10.9781 5.36864ZM18.7125 14.4155C18.5467 15.6815 17.9267 16.8442 16.9679 17.6875C16.0092 18.5307 14.7768 18.9971 13.5 18.9999C6.05625 18.9999 0 12.9436 0 5.49989C0.00281471 4.22306 0.469194 2.99071 1.31243 2.03194C2.15566 1.07317 3.31837 0.453233 4.58437 0.287385C4.90711 0.251602 5.23284 0.31955 5.51435 0.481376C5.79586 0.643202 6.01851 0.890492 6.15 1.18739L8.03437 5.58426C8.13212 5.81249 8.17131 6.06151 8.14839 6.30873C8.12547 6.55594 8.04116 6.79352 7.90312 6.99989L6.34687 9.38113C7.05158 10.8113 8.21273 11.9658 9.64687 12.6624L12 11.0968C12.2061 10.9578 12.4443 10.8737 12.692 10.8524C12.9397 10.831 13.1888 10.8732 13.4156 10.9749L17.8125 12.8499C18.1094 12.9814 18.3567 13.204 18.5185 13.4855C18.6803 13.767 18.7483 14.0928 18.7125 14.4155ZM17.2219 14.228L12.825 12.353L10.4812 13.9186C10.2656 14.0612 10.0168 14.1456 9.75887 14.1637C9.50098 14.1818 9.2428 14.1329 9.00937 14.0218C7.26276 13.1769 5.84994 11.7707 4.99687 10.028C4.8844 9.79537 4.83393 9.53763 4.85036 9.27975C4.86678 9.02188 4.94955 8.77262 5.09062 8.55614L6.65625 6.17489L4.77187 1.77801C3.86714 1.89431 3.03582 2.3364 2.43356 3.02149C1.8313 3.70658 1.4994 4.58771 1.5 5.49989C1.50248 8.68172 2.76756 11.7325 5.01746 13.9824C7.26736 16.2323 10.3182 17.4974 13.5 17.4999C14.4122 17.5005 15.2933 17.1686 15.9784 16.5663C16.6635 15.9641 17.1056 15.1327 17.2219 14.228Z" fill="#F5F5F5"/>
</svg>
