<svg width="163" height="69" viewBox="0 0 163 69" fill="none" xmlns="http://www.w3.org/2000/svg">
<path d="M76.4746 31.4734V1.81551H89.7783C93.196 1.81551 95.8229 2.50753 97.6588 3.89156C99.4948 5.24735 100.413 7.11156 100.413 9.48419C100.413 11.0942 100.046 12.45 99.3112 13.5516C98.6051 14.6531 97.6447 15.5005 96.4301 16.0937C95.2156 16.6868 93.9022 16.9834 92.4899 16.9834L93.2525 15.7124C94.9472 15.7124 96.4443 16.0089 97.7436 16.6021C99.0429 17.1952 100.074 18.0709 100.836 19.2289C101.599 20.3588 101.98 21.771 101.98 23.4658C101.98 26.0079 101.02 27.9851 99.0993 29.3974C97.2069 30.7814 94.3823 31.4734 90.6257 31.4734H76.4746ZM80.7115 28.0416H90.4562C92.8006 28.0416 94.5942 27.6461 95.837 26.8552C97.0798 26.0644 97.7012 24.8216 97.7012 23.1268C97.7012 21.4038 97.0798 20.1469 95.837 19.356C94.5942 18.5652 92.8006 18.1697 90.4562 18.1697H80.3301V14.7379H89.397C91.5436 14.7379 93.2101 14.3424 94.3965 13.5516C95.5828 12.7607 96.1759 11.5744 96.1759 9.99261C96.1759 8.41086 95.5828 7.22454 94.3965 6.43367C93.2101 5.64279 91.5436 5.24735 89.397 5.24735H80.7115V28.0416Z" fill="#F5F5F5"/>
<path d="M108.541 31.4734V1.81551H112.777V31.4734H108.541Z" fill="#F5F5F5"/>
<path d="M135.045 31.8124C132.785 31.8124 130.681 31.431 128.732 30.6684C126.811 29.9058 125.145 28.8466 123.733 27.4908C122.32 26.1067 121.219 24.4967 120.428 22.6608C119.637 20.8248 119.242 18.8194 119.242 16.6445C119.242 14.4695 119.637 12.4641 120.428 10.6281C121.219 8.79217 122.32 7.1963 123.733 5.84051C125.145 4.45647 126.811 3.38314 128.732 2.62051C130.653 1.85788 132.757 1.47656 135.045 1.47656C137.305 1.47656 139.381 1.85788 141.273 2.62051C143.194 3.35489 144.86 4.41411 146.273 5.79814C147.713 7.15393 148.815 8.74981 149.577 10.5858C150.368 12.4217 150.764 14.4413 150.764 16.6445C150.764 18.8476 150.368 20.8672 149.577 22.7031C148.815 24.5391 147.713 26.1491 146.273 27.5331C144.86 28.8889 143.194 29.9481 141.273 30.7108C139.381 31.4452 137.305 31.8124 135.045 31.8124ZM135.045 28.0416C136.683 28.0416 138.194 27.7591 139.578 27.1942C140.991 26.6293 142.205 25.8384 143.222 24.8216C144.267 23.7765 145.072 22.5619 145.637 21.1779C146.23 19.7938 146.527 18.2827 146.527 16.6445C146.527 15.0062 146.23 13.4951 145.637 12.111C145.072 10.727 144.267 9.52656 143.222 8.50972C142.205 7.46463 140.991 6.65963 139.578 6.09472C138.194 5.52981 136.683 5.24735 135.045 5.24735C133.378 5.24735 131.839 5.52981 130.427 6.09472C129.043 6.65963 127.828 7.46463 126.783 8.50972C125.738 9.52656 124.919 10.727 124.326 12.111C123.761 13.4951 123.478 15.0062 123.478 16.6445C123.478 18.2827 123.761 19.7938 124.326 21.1779C124.919 22.5619 125.738 23.7765 126.783 24.8216C127.828 25.8384 129.043 26.6293 130.427 27.1942C131.839 27.7591 133.378 28.0416 135.045 28.0416Z" fill="#F5F5F5"/>
<path d="M87.6436 67.1841C85.6542 67.1841 83.8139 66.8544 82.1229 66.1951C80.4567 65.5103 79.0019 64.5593 77.7585 63.342C76.54 62.0994 75.5826 60.6539 74.8863 59.0054C74.19 57.357 73.8418 55.5438 73.8418 53.5657C73.8418 51.5876 74.19 49.7743 74.8863 48.1259C75.5826 46.4775 76.5524 45.0447 77.7958 43.8274C79.0392 42.5847 80.494 41.6337 82.1602 40.9744C83.8512 40.2896 85.6915 39.9473 87.6809 39.9473C89.6952 39.9473 91.5479 40.3023 93.239 41.0124C94.9549 41.6971 96.4097 42.7242 97.6033 44.0937L95.1787 46.4902C94.184 45.4251 93.0649 44.6389 91.8215 44.1317C90.5781 43.5991 89.2476 43.3329 87.8301 43.3329C86.3629 43.3329 84.9952 43.5865 83.7269 44.0937C82.4835 44.6009 81.4017 45.3109 80.4816 46.2239C79.5615 47.1369 78.8403 48.2274 78.3181 49.4954C77.8207 50.738 77.572 52.0948 77.572 53.5657C77.572 55.0366 77.8207 56.406 78.3181 57.674C78.8403 58.9167 79.5615 59.9945 80.4816 60.9075C81.4017 61.8204 82.4835 62.5305 83.7269 63.0377C84.9952 63.5449 86.3629 63.7985 87.8301 63.7985C89.2476 63.7985 90.5781 63.5449 91.8215 63.0377C93.0649 62.5052 94.184 61.6936 95.1787 60.6031L97.6033 62.9997C96.4097 64.3691 94.9549 65.4089 93.239 66.119C91.5479 66.8291 89.6828 67.1841 87.6436 67.1841Z" fill="#F5F5F5"/>
<path d="M108.675 66.8798L99.9467 40.2516H103.789L111.809 64.8256H109.869L118.187 40.2516H121.619L129.751 64.8256H127.886L136.018 40.2516H139.562L130.833 66.8798H126.916L119.307 44.0937H120.314L112.667 66.8798H108.675Z" fill="#F5F5F5"/>
<path d="M149.565 66.8798V43.5611H140.612V40.2516H162.21V43.5611H153.258V66.8798H149.565Z" fill="#F5F5F5"/>
<path d="M55.9553 3.85645C28.7393 25.7497 -13.6412 59.8952 64.0899 40.613" stroke="#F5F5F5" stroke-linecap="round"/>
<path d="M60.4747 4.1582C40.7908 22.2352 6.24366 53.2674 64.0901 36.0943" stroke="#F5F5F5" stroke-linecap="round"/>
<path d="M63.7891 8.37476C50.0304 21.0287 30.7684 43.7455 63.7891 32.1762" stroke="#F5F5F5" stroke-linecap="round"/>
<path d="M64.0896 18.3176C58.3652 22.8369 46.9164 35.4908 64.0896 27.0549" stroke="#F5F5F5" stroke-linecap="round"/>
<path d="M4.13429 46.6387C3.23044 42.6216 7.32791 32.9604 17.6921 26.4527C30.6473 18.3181 32.7562 22.2347 48.1217 3.85645" stroke="#F5F5F5" stroke-linecap="round"/>
<path d="M4.13477 28.8625C23.4169 20.4266 52.0991 3.1329 12.5707 3.85598" stroke="#F5F5F5" stroke-linecap="round"/>
<path d="M8.35226 4.1582C20.4036 6.36762 41.1922 10.4852 3.83301 24.9468" stroke="#F5F5F5" stroke-linecap="round"/>
<path d="M3.83301 10.4844C14.3779 11.2878 31.5511 11.6895 3.83301 18.9203" stroke="#F5F5F5" stroke-linecap="round"/>
<path d="M63.7884 48.1451C56.7585 48.1451 38.9024 48.4464 32.1537 54.4721C25.4049 60.4978 10.6621 51.0576 3.83301 45.4336" stroke="#F5F5F5" stroke-linecap="round"/>
<path d="M38.4805 63.5081C40.9912 58.4867 43.6023 48.7452 63.7883 52.3606" stroke="#F5F5F5" stroke-linecap="round"/>
<path d="M48.7246 63.5091C49.2267 58.6886 50.8336 50.2527 63.7888 56.2783" stroke="#F5F5F5" stroke-linecap="round"/>
<path d="M4.43555 55.0732C11.6664 55.2741 29.7434 58.6886 13.4741 63.5092" stroke="#F5F5F5" stroke-linecap="round"/>
<path d="M4.13477 59.2906C9.15616 58.3868 20.7054 58.3868 9.55787 63.5086" stroke="#F5F5F5" stroke-linecap="round"/>
<rect x="1" y="1" width="67" height="67" rx="4" stroke="#F5F5F5" stroke-width="2"/>
</svg>
