<svg width="40" height="40" viewBox="0 0 40 40" fill="none" xmlns="http://www.w3.org/2000/svg">
<path d="M23.6289 3.40221C23.6809 3.20358 23.772 3.01733 23.8968 2.85436C24.0217 2.69139 24.1778 2.55497 24.3561 2.45311C24.5344 2.35125 24.7311 2.28598 24.9349 2.26115C25.1388 2.23631 25.3455 2.25239 25.543 2.30846C28.4557 3.08965 31.1116 4.62346 33.244 6.75586C35.3764 8.88826 36.9102 11.5442 37.6914 14.4569C37.7475 14.6544 37.7636 14.8611 37.7387 15.0649C37.7139 15.2687 37.6486 15.4655 37.5468 15.6438C37.4449 15.822 37.3085 15.9782 37.1455 16.103C36.9825 16.2279 36.7963 16.319 36.5977 16.371C36.4643 16.4096 36.3263 16.4293 36.1875 16.4295C35.8426 16.4276 35.5081 16.3115 35.2361 16.0996C34.9641 15.8876 34.7698 15.5916 34.6836 15.2577C34.0338 12.8793 32.7751 10.7115 31.0317 8.96811C29.2884 7.22473 27.1205 5.96604 24.7422 5.31627C24.5418 5.26644 24.3535 5.1769 24.1883 5.05295C24.0232 4.929 23.8846 4.77316 23.7808 4.59467C23.677 4.41618 23.61 4.21867 23.5839 4.01383C23.5578 3.809 23.5731 3.60102 23.6289 3.40221ZM23.1211 11.3514C24.4431 11.7133 25.6481 12.4133 26.6173 13.3825C27.5865 14.3518 28.2865 15.5567 28.6484 16.8788C28.7316 17.2143 28.925 17.5123 29.1977 17.7248C29.4704 17.9373 29.8066 18.052 30.1523 18.0506C30.2848 18.0519 30.4167 18.0322 30.543 17.9921C30.7434 17.9422 30.9317 17.8527 31.0968 17.7287C31.262 17.6048 31.4006 17.4489 31.5044 17.2704C31.6082 17.092 31.6751 16.8944 31.7012 16.6896C31.7273 16.4848 31.712 16.2768 31.6562 16.078C31.163 14.2216 30.1879 12.5285 28.8296 11.1702C27.4714 9.812 25.7783 8.83686 23.9219 8.34361C23.7181 8.26936 23.501 8.23836 23.2846 8.25259C23.0681 8.26681 22.857 8.32595 22.6646 8.42624C22.4723 8.52653 22.3029 8.66576 22.1674 8.83509C22.0318 9.00442 21.9329 9.20012 21.8771 9.40974C21.8213 9.61935 21.8098 9.8383 21.8432 10.0526C21.8767 10.2669 21.9544 10.472 22.0714 10.6546C22.1884 10.8373 22.3422 10.9935 22.5229 11.1135C22.7036 11.2335 22.9073 11.3145 23.1211 11.3514ZM39.2344 30.1991C38.8889 32.8366 37.5973 35.2589 35.5999 37.0156C33.6025 38.7724 31.035 39.744 28.375 39.7499C12.8672 39.7499 0.25 27.1327 0.25 11.6249C0.255864 8.96482 1.22749 6.39741 2.98422 4.39998C4.74096 2.40254 7.16327 1.111 9.80078 0.765488C10.4731 0.690939 11.1518 0.832497 11.7382 1.16963C12.3247 1.50677 12.7886 2.02196 13.0625 2.64049L16.9883 11.8006C17.1919 12.2761 17.2736 12.7949 17.2258 13.31C17.1781 13.825 17.0024 14.3199 16.7148 14.7499L13.4727 19.7108C14.9408 22.6903 17.3599 25.0956 20.3477 26.5467L25.25 23.285C25.6795 22.9955 26.1757 22.8203 26.6917 22.7758C27.2077 22.7314 27.7266 22.8193 28.1992 23.0311L37.3594 26.9374C37.9779 27.2113 38.4931 27.6751 38.8302 28.2616C39.1674 28.8481 39.3089 29.5267 39.2344 30.1991ZM36.1289 29.8085L26.9687 25.9022L22.0859 29.1639C21.6367 29.4609 21.1182 29.6368 20.581 29.6744C20.0437 29.7121 19.5058 29.6102 19.0195 29.3788C15.3807 27.6186 12.4374 24.689 10.6602 21.0585C10.4258 20.5738 10.3207 20.0368 10.3549 19.4996C10.3891 18.9624 10.5616 18.4431 10.8555 17.9921L14.1172 13.0311L10.1914 3.87096C8.30654 4.11325 6.57462 5.03426 5.31991 6.46154C4.0652 7.88882 3.37374 9.72449 3.375 11.6249C3.38017 18.2537 6.01575 24.6095 10.703 29.2968C15.3903 33.9841 21.7462 36.6197 28.375 36.6249C30.2754 36.6261 32.111 35.9347 33.5383 34.68C34.9656 33.4252 35.8866 31.6933 36.1289 29.8085Z" fill="#F5F5F5"/>
</svg>
