<svg width="89" height="105" viewBox="0 0 89 105" fill="none" xmlns="http://www.w3.org/2000/svg">
<path d="M44.4791 105C35.9449 105 28.2736 102.795 21.4654 98.3836C14.7531 93.8767 9.52705 87.6438 5.78732 79.6849C2.0476 71.6301 0.177734 62.5685 0.177734 52.5C0.177734 42.3356 2.0476 33.274 5.78732 25.3151C9.52705 17.3562 14.7531 11.1712 21.4654 6.76027C28.2736 2.25342 35.9449 0 44.4791 0C53.0133 0 60.6366 2.25342 67.349 6.76027C74.0613 11.1712 79.2873 17.3562 83.0271 25.3151C86.7668 33.274 88.6366 42.3356 88.6366 52.5C88.6366 62.5685 86.7668 71.6301 83.0271 79.6849C79.2873 87.6438 74.0613 93.8767 67.349 98.3836C60.6366 102.795 53.0133 105 44.4791 105ZM44.4791 89.8973C49.849 89.8973 54.5955 88.363 58.7188 85.2945C62.8421 82.1301 66.0544 77.7192 68.3558 72.0616C70.6572 66.4041 71.8079 59.8836 71.8079 52.5C71.8079 45.1164 70.6572 38.5959 68.3558 32.9384C66.0544 27.2808 62.8421 22.9178 58.7188 19.8493C54.5955 16.6849 49.849 15.1027 44.4791 15.1027C39.1092 15.1027 34.3627 16.6849 30.2394 19.8493C26.1161 22.9178 22.9038 27.2808 20.6024 32.9384C18.301 38.5959 17.1503 45.1164 17.1503 52.5C17.1503 59.8836 18.301 66.4041 20.6024 72.0616C22.9038 77.7192 26.1161 82.1301 30.2394 85.2945C34.3627 88.363 39.1092 89.8973 44.4791 89.8973Z" fill="#F5F5F5"/>
<path d="M23.623 79.1094C24.6778 76.2327 30.6998 69.1848 45.1984 66.3081C59.697 63.4314 68.26 44.0136 70.3696 35.3834" stroke="#F5F5F5" stroke-width="2" stroke-linecap="round"/>
<path d="M39.7324 15.2462C40.4995 31.164 46.0612 54.3407 58.1434 19.1298" stroke="#F5F5F5" stroke-width="2" stroke-linecap="round"/>
<path d="M43.7598 15.1028C45.5817 25.0274 50.2611 39.3247 54.4036 17.1165" stroke="#F5F5F5" stroke-width="2" stroke-linecap="round"/>
<path d="M30.5272 19.274C35.0819 26.3219 40.423 48.9041 23.623 78.8219" stroke="#F5F5F5" stroke-width="2" stroke-linecap="round"/>
<path d="M26.212 22.5819C30.2873 33.3696 35.2161 59.2888 21.1777 73.7874" stroke="#F5F5F5" stroke-width="2" stroke-linecap="round"/>
<path d="M20.3145 30.7809C23.1912 39.6987 31.246 57.9658 17.2939 65.1576" stroke="#F5F5F5" stroke-width="2" stroke-linecap="round"/>
<path d="M36.8555 15.9655C37.0472 40.1299 42.1774 75.7148 60.5883 21.2874" stroke="#F5F5F5" stroke-width="2" stroke-linecap="round"/>
<path d="M71.6645 59.6918C62.5549 63.3836 45.0261 74.5644 47.7878 89.7534" stroke="#F5F5F5" stroke-width="2" stroke-linecap="round"/>
<path d="M69.3628 71.1987C62.3149 71.2467 48.6792 74.7946 53.9724 88.0275" stroke="#F5F5F5" stroke-width="2" stroke-linecap="round"/>
<path d="M66.9177 77.0959C62.9383 76.6164 54.404 77.9589 57.8561 86.0137" stroke="#F5F5F5" stroke-width="2" stroke-linecap="round"/>
<path d="M35.1296 89.6097C30.8146 83.2809 35.4461 78.7357 46.4926 70.3357C60.3009 59.8357 68.068 60.4111 72.2392 44.733" stroke="#F5F5F5" stroke-width="2" stroke-linecap="round"/>
</svg>
