<svg width="197" height="84" viewBox="0 0 197 84" fill="none" xmlns="http://www.w3.org/2000/svg">
<path d="M92.8767 38.2238V2.20516H109.034C113.184 2.20516 116.375 3.04559 118.604 4.72646C120.834 6.37303 121.949 8.63706 121.949 11.5186C121.949 13.4739 121.503 15.1204 120.611 16.4583C119.753 17.7961 118.587 18.8252 117.112 19.5456C115.637 20.2659 114.042 20.6261 112.327 20.6261L113.253 19.0825C115.311 19.0825 117.129 19.4427 118.707 20.163C120.285 20.8834 121.537 21.9468 122.463 23.3533C123.39 24.7254 123.853 26.4406 123.853 28.4988C123.853 31.5861 122.686 33.9873 120.354 35.7025C118.055 37.3834 114.625 38.2238 110.063 38.2238H92.8767ZM98.0222 34.0559H109.857C112.704 34.0559 114.882 33.5757 116.392 32.6152C117.901 31.6547 118.656 30.1453 118.656 28.0871C118.656 25.9946 117.901 24.4681 116.392 23.5076C114.882 22.5471 112.704 22.0669 109.857 22.0669H97.5591V17.899H108.571C111.178 17.899 113.202 17.4188 114.642 16.4583C116.083 15.4978 116.803 14.057 116.803 12.136C116.803 10.215 116.083 8.77428 114.642 7.81378C113.202 6.85328 111.178 6.37303 108.571 6.37303H98.0222V34.0559Z" fill="#F5F5F5"/>
<path d="M131.82 38.2238V2.20516H136.965V38.2238H131.82Z" fill="#F5F5F5"/>
<path d="M164.009 38.6355C161.264 38.6355 158.709 38.1724 156.342 37.2462C154.009 36.32 151.985 35.0336 150.27 33.387C148.555 31.7062 147.217 29.7509 146.257 27.5211C145.296 25.2914 144.816 22.8559 144.816 20.2145C144.816 17.5731 145.296 15.1376 146.257 12.9078C147.217 10.6781 148.555 8.73997 150.27 7.09341C151.985 5.41253 154.009 4.109 156.342 3.18281C158.675 2.25661 161.23 1.79352 164.009 1.79352C166.753 1.79352 169.274 2.25661 171.573 3.18281C173.905 4.0747 175.929 5.36108 177.644 7.04195C179.394 8.68852 180.732 10.6267 181.658 12.8564C182.618 15.0861 183.099 17.5388 183.099 20.2145C183.099 22.8902 182.618 25.3429 181.658 27.5726C180.732 29.8023 179.394 31.7576 177.644 33.4385C175.929 35.085 173.905 36.3714 171.573 37.2976C169.274 38.1895 166.753 38.6355 164.009 38.6355ZM164.009 34.0559C165.998 34.0559 167.834 33.7129 169.514 33.0268C171.23 32.3408 172.705 31.3803 173.94 30.1453C175.209 28.8761 176.186 27.4011 176.873 25.7202C177.593 24.0393 177.953 22.2041 177.953 20.2145C177.953 18.2249 177.593 16.3896 176.873 14.7088C176.186 13.0279 175.209 11.57 173.94 10.3351C172.705 9.06585 171.23 8.0882 169.514 7.40214C167.834 6.71607 165.998 6.37303 164.009 6.37303C161.985 6.37303 160.115 6.71607 158.4 7.40214C156.719 8.0882 155.244 9.06585 153.975 10.3351C152.706 11.57 151.711 13.0279 150.991 14.7088C150.304 16.3896 149.961 18.2249 149.961 20.2145C149.961 22.2041 150.304 24.0393 150.991 25.7202C151.711 27.4011 152.706 28.8761 153.975 30.1453C155.244 31.3803 156.719 32.3408 158.4 33.0268C160.115 33.7129 161.985 34.0559 164.009 34.0559Z" fill="#F5F5F5"/>
<path d="M106.441 81.5933C104.025 81.5933 101.79 81.1929 99.7362 80.3921C97.7127 79.5606 95.9459 78.4056 94.4358 76.9272C92.956 75.4181 91.7932 73.6625 90.9475 71.6606C90.1019 69.6586 89.6791 67.4565 89.6791 65.0541C89.6791 62.6518 90.1019 60.4496 90.9475 58.4477C91.7932 56.4458 92.9711 54.7056 94.4811 53.2272C95.9912 51.7181 97.758 50.5631 99.7815 49.7623C101.835 48.9307 104.07 48.515 106.486 48.515C108.933 48.515 111.183 48.9461 113.236 49.8085C115.32 50.6401 117.087 51.8875 118.537 53.5506L115.592 56.4612C114.384 55.1676 113.025 54.2128 111.515 53.5968C110.005 52.95 108.389 52.6266 106.668 52.6266C104.886 52.6266 103.225 52.9346 101.684 53.5506C100.174 54.1666 98.8604 55.029 97.7429 56.1378C96.6255 57.2465 95.7496 58.5709 95.1154 60.1109C94.5113 61.62 94.2093 63.2678 94.2093 65.0541C94.2093 66.8405 94.5113 68.5036 95.1154 70.0436C95.7496 71.5528 96.6255 72.8617 97.7429 73.9705C98.8604 75.0793 100.174 75.9417 101.684 76.5576C103.225 77.1736 104.886 77.4816 106.668 77.4816C108.389 77.4816 110.005 77.1736 111.515 76.5576C113.025 75.9109 114.384 74.9253 115.592 73.6009L118.537 76.5114C117.087 78.1746 115.32 79.4374 113.236 80.2997C111.183 81.1621 108.918 81.5933 106.441 81.5933Z" fill="#F5F5F5"/>
<path d="M131.983 81.2237L121.383 48.8845H126.049L135.789 78.729H133.433L143.536 48.8845H147.703L157.579 78.729H155.314L165.19 48.8845H169.494L158.893 81.2237H154.136L144.895 53.5506H146.118L136.831 81.2237H131.983Z" fill="#F5F5F5"/>
<path d="M181.642 81.2237V52.9038H170.77V48.8845H197V52.9038H186.127V81.2237H181.642Z" fill="#F5F5F5"/>
<path d="M71.3092 2.01434C34.916 31.2901 -21.7554 76.9495 82.1869 51.1654" stroke="#F5F5F5" stroke-linecap="round"/>
<path d="M77.3524 2.41724C51.0311 26.5899 4.83448 68.0863 82.1869 45.1222" stroke="#F5F5F5" stroke-linecap="round"/>
<path d="M81.7841 8.05756C63.3861 24.9784 37.6288 55.3554 81.7841 39.8849" stroke="#F5F5F5" stroke-linecap="round"/>
<path d="M82.1869 21.3525C74.5322 27.3957 59.2229 44.3166 82.1869 33.036" stroke="#F5F5F5" stroke-linecap="round"/>
<path d="M2.0144 59.2229C0.805767 53.8512 6.28492 40.9323 20.1439 32.2301C37.4676 21.3525 40.2878 26.5899 60.8345 2.01434" stroke="#F5F5F5" stroke-linecap="round"/>
<path d="M2.0144 35.4532C27.7986 24.1726 66.1525 1.04749 13.295 2.01439" stroke="#F5F5F5" stroke-linecap="round"/>
<path d="M7.65461 2.41724C23.7697 5.37167 51.5683 10.8777 1.61145 30.2158" stroke="#F5F5F5" stroke-linecap="round"/>
<path d="M1.61145 10.8777C15.7122 11.952 38.6762 12.4892 1.61145 22.1583" stroke="#F5F5F5" stroke-linecap="round"/>
<path d="M81.7841 61.2373C72.3836 61.2373 48.5064 61.6402 39.4819 69.6978C30.4575 77.7553 10.7433 65.1318 1.61145 57.6115" stroke="#F5F5F5" stroke-linecap="round"/>
<path d="M47.9424 81.7841C51.2997 75.0695 54.7913 62.0431 81.7841 66.8777" stroke="#F5F5F5" stroke-linecap="round"/>
<path d="M61.6403 81.7841C62.3117 75.3381 64.4604 64.0575 81.7841 72.115" stroke="#F5F5F5" stroke-linecap="round"/>
<path d="M2.41724 70.5035C12.0863 70.7721 36.2589 75.3381 14.5036 81.7841" stroke="#F5F5F5" stroke-linecap="round"/>
<path d="M2.0144 76.1438C8.72903 74.9352 24.1727 74.9352 9.2662 81.7841" stroke="#F5F5F5" stroke-linecap="round"/>
<rect x="2" y="2" width="79.7985" height="79.7985" rx="9" stroke="#F5F5F5" stroke-width="4"/>
</svg>
