<svg width="85" height="36" viewBox="0 0 85 36" fill="none" xmlns="http://www.w3.org/2000/svg">
<path d="M39.9004 16.4212V0.947532H46.8414C48.6246 0.947532 49.9951 1.30858 50.953 2.03069C51.9109 2.73806 52.3899 3.71069 52.3899 4.94858C52.3899 5.78859 52.1983 6.49595 51.8151 7.07069C51.4467 7.64543 50.9457 8.08753 50.312 8.39701C49.6783 8.70648 48.993 8.86122 48.2562 8.86122L48.6541 8.19806C49.5383 8.19806 50.3193 8.3528 50.9972 8.66227C51.6751 8.97174 52.213 9.42859 52.6109 10.0328C53.0088 10.6223 53.2078 11.3591 53.2078 12.2433C53.2078 13.5696 52.7067 14.6012 51.7046 15.3381C50.7172 16.0602 49.2435 16.4212 47.2835 16.4212H39.9004ZM42.1109 14.6307H47.1951C48.4183 14.6307 49.3541 14.4244 50.0025 14.0117C50.6509 13.5991 50.9751 12.9507 50.9751 12.0665C50.9751 11.1675 50.6509 10.5117 50.0025 10.0991C49.3541 9.68648 48.4183 9.48016 47.1951 9.48016H41.912V7.68964H46.6425C47.7625 7.68964 48.632 7.48332 49.2509 7.07069C49.8699 6.65806 50.1793 6.03911 50.1793 5.21385C50.1793 4.38859 49.8699 3.76964 49.2509 3.35701C48.632 2.94437 47.7625 2.73806 46.6425 2.73806H42.1109V14.6307Z" fill="#F5F5F5"/>
<path d="M56.6304 16.4212V0.947532H58.841V16.4212H56.6304Z" fill="#F5F5F5"/>
<path d="M70.4588 16.5981C69.2799 16.5981 68.182 16.3991 67.1652 16.0012C66.1631 15.6033 65.2936 15.0507 64.5567 14.3433C63.8199 13.6212 63.2452 12.7812 62.8325 11.8233C62.4199 10.8654 62.2136 9.81911 62.2136 8.68437C62.2136 7.54964 62.4199 6.50332 62.8325 5.54543C63.2452 4.58753 63.8199 3.7549 64.5567 3.04753C65.2936 2.32543 66.1631 1.76543 67.1652 1.36753C68.1673 0.969638 69.2652 0.770691 70.4588 0.770691C71.6378 0.770691 72.721 0.969638 73.7083 1.36753C74.7104 1.75069 75.5799 2.30332 76.3167 3.02543C77.0683 3.7328 77.6431 4.56543 78.041 5.52332C78.4536 6.48122 78.6599 7.5349 78.6599 8.68437C78.6599 9.83385 78.4536 10.8875 78.041 11.8454C77.6431 12.8033 77.0683 13.6433 76.3167 14.3654C75.5799 15.0728 74.7104 15.6254 73.7083 16.0233C72.721 16.4065 71.6378 16.5981 70.4588 16.5981ZM70.4588 14.6307C71.3136 14.6307 72.102 14.4833 72.8241 14.1886C73.561 13.8938 74.1946 13.4812 74.7252 12.9507C75.2704 12.4054 75.6904 11.7717 75.9852 11.0496C76.2946 10.3275 76.4494 9.53911 76.4494 8.68437C76.4494 7.82964 76.2946 7.04122 75.9852 6.31911C75.6904 5.59701 75.2704 4.97069 74.7252 4.44016C74.1946 3.8949 73.561 3.4749 72.8241 3.18016C72.102 2.88543 71.3136 2.73806 70.4588 2.73806C69.5894 2.73806 68.7862 2.88543 68.0494 3.18016C67.3273 3.4749 66.6936 3.8949 66.1483 4.44016C65.6031 4.97069 65.1757 5.59701 64.8662 6.31911C64.5715 7.04122 64.4241 7.82964 64.4241 8.68437C64.4241 9.53911 64.5715 10.3275 64.8662 11.0496C65.1757 11.7717 65.6031 12.4054 66.1483 12.9507C66.6936 13.4812 67.3273 13.8938 68.0494 14.1886C68.7862 14.4833 69.5894 14.6307 70.4588 14.6307Z" fill="#F5F5F5"/>
<path d="M45.7273 35.0525C44.6893 35.0525 43.7292 34.8805 42.8469 34.5365C41.9776 34.1792 41.2186 33.6831 40.5699 33.0479C39.9341 32.3996 39.4346 31.6454 39.0713 30.7854C38.708 29.9253 38.5264 28.9793 38.5264 27.9472C38.5264 26.9152 38.708 25.9691 39.0713 25.1091C39.4346 24.2491 39.9406 23.5015 40.5893 22.8664C41.2381 22.218 41.9971 21.7219 42.8664 21.3779C43.7487 21.0206 44.7088 20.842 45.7468 20.842C46.7977 20.842 47.7643 21.0272 48.6466 21.3977C49.5419 21.7549 50.3009 22.2908 50.9237 23.0053L49.6587 24.2557C49.1397 23.7 48.5558 23.2898 47.9071 23.0252C47.2583 22.7473 46.5642 22.6084 45.8246 22.6084C45.0591 22.6084 44.3455 22.7407 43.6838 23.0053C43.0351 23.2699 42.4707 23.6404 41.9906 24.1168C41.5105 24.5931 41.1343 25.162 40.8618 25.8236C40.6023 26.4719 40.4726 27.1798 40.4726 27.9472C40.4726 28.7147 40.6023 29.4292 40.8618 30.0907C41.1343 30.7391 41.5105 31.3014 41.9906 31.7777C42.4707 32.2541 43.0351 32.6245 43.6838 32.8892C44.3455 33.1538 45.0591 33.2861 45.8246 33.2861C46.5642 33.2861 47.2583 33.1538 47.9071 32.8892C48.5558 32.6113 49.1397 32.1879 49.6587 31.619L50.9237 32.8693C50.3009 33.5838 49.5419 34.1263 48.6466 34.4968C47.7643 34.8673 46.7912 35.0525 45.7273 35.0525Z" fill="#F5F5F5"/>
<path d="M56.7004 34.8937L52.1463 21.0008H54.1509L58.3352 33.822H57.3232L61.6632 21.0008H63.4537L67.6965 33.822H66.7234L70.9661 21.0008H72.815L68.2609 34.8937H66.2174L62.2471 23.0053H62.7726L58.7829 34.8937H56.7004Z" fill="#F5F5F5"/>
<path d="M78.034 34.8937V22.7275H73.3631V21.0008H84.6316V22.7275H79.9607V34.8937H78.034Z" fill="#F5F5F5"/>
<path d="M29.1939 2.01154C14.9942 13.4341 -7.11734 31.2491 33.4381 21.1889" stroke="#F5F5F5" stroke-linecap="round"/>
<path d="M31.5515 2.16852C21.2817 11.6 3.2571 27.7907 33.4378 18.8308" stroke="#F5F5F5" stroke-linecap="round"/>
<path d="M33.2811 4.36902C26.1027 10.9711 16.0529 22.8233 33.2811 16.7871" stroke="#F5F5F5" stroke-linecap="round"/>
<path d="M33.4383 9.55664C30.4516 11.9145 24.4783 18.5166 33.4383 14.1152" stroke="#F5F5F5" stroke-linecap="round"/>
<path d="M2.15719 24.3327C1.68561 22.2368 3.82343 17.1962 9.23081 13.8009C15.99 9.55673 17.0904 11.6002 25.1071 2.01154" stroke="#F5F5F5" stroke-linecap="round"/>
<path d="M2.15723 15.0584C12.2175 10.657 27.1821 1.63422 6.55859 2.01147" stroke="#F5F5F5" stroke-linecap="round"/>
<path d="M4.35787 2.16852C10.6455 3.32126 21.4917 5.46954 2 13.0147" stroke="#F5F5F5" stroke-linecap="round"/>
<path d="M2 5.46967C7.5017 5.88884 16.4616 6.09843 2 9.87103" stroke="#F5F5F5" stroke-linecap="round"/>
<path d="M33.2811 25.1188C29.6133 25.1188 20.2971 25.276 16.776 28.4198C13.2549 31.5637 5.56301 26.6383 2 23.7041" stroke="#F5F5F5" stroke-linecap="round"/>
<path d="M20.0771 33.1349C21.3871 30.5151 22.7494 25.4325 33.2812 27.3188" stroke="#F5F5F5" stroke-linecap="round"/>
<path d="M25.4219 33.1351C25.6839 30.6201 26.5222 26.2187 33.2814 29.3625" stroke="#F5F5F5" stroke-linecap="round"/>
<path d="M2.31445 28.7339C6.08705 28.8387 15.5185 30.6202 7.0302 33.1352" stroke="#F5F5F5" stroke-linecap="round"/>
<path d="M2.15723 30.9344C4.77708 30.4628 10.8028 30.4628 4.98667 33.1351" stroke="#F5F5F5" stroke-linecap="round"/>
<rect x="1" y="1" width="34" height="34" rx="4" stroke="#F5F5F5" stroke-width="2"/>
</svg>
